<?xml version="1.0" standalone="no"?>
<!DOCTYPE svg PUBLIC "-//W3C//DTD SVG 20010904//EN"
 "http://www.w3.org/TR/2001/REC-SVG-20010904/DTD/svg10.dtd">
<svg version="1.0" xmlns="http://www.w3.org/2000/svg"
 width="460.000000pt" height="460.000000pt" viewBox="0 0 460.000000 460.000000"
 preserveAspectRatio="xMidYMid meet">
<metadata>
Created by potrace 1.14, written by Peter Selinger 2001-2017
</metadata>
<g transform="translate(0.000000,460.000000) scale(0.100000,-0.100000)"
fill="#000000" stroke="none">
<path d="M1960 4455 c-467 -83 -850 -314 -1109 -670 -135 -185 -226 -435 -238
-655 l-6 -118 -52 -26 c-65 -33 -137 -104 -167 -164 -19 -39 -23 -63 -23 -142
0 -119 17 -155 122 -258 60 -58 77 -82 85 -115 16 -74 100 -255 128 -277 3 -3
25 -30 47 -60 41 -54 126 -133 189 -176 114 -78 373 -170 559 -199 54 -9 88
-49 160 -191 54 -106 88 -159 183 -289 34 -46 67 -117 77 -166 4 -19 23 -88
42 -154 29 -101 33 -123 22 -145 -6 -14 -22 -59 -36 -100 -61 -189 -54 -326
23 -430 55 -75 121 -120 177 -120 l42 0 -46 23 c-184 94 -237 240 -174 476 33
123 37 129 61 105 37 -37 121 -94 170 -114 27 -12 92 -30 145 -41 90 -18 102
-18 200 -4 168 24 310 108 385 227 37 58 48 49 40 -33 -24 -236 -186 -485
-391 -600 l-70 -39 42 0 c33 0 55 8 95 37 147 102 263 258 324 434 22 66 25
87 22 196 -3 118 -2 123 22 145 28 26 94 58 119 58 10 0 28 -11 40 -24 l23
-25 -25 -33 c-46 -61 -59 -98 -59 -164 1 -134 94 -224 233 -224 210 0 300 280
131 407 -60 46 -112 58 -187 44 -48 -9 -62 -8 -74 3 -23 24 -5 32 96 45 82 10
109 9 166 -3 63 -13 74 -20 142 -85 64 -60 83 -73 143 -90 83 -25 121 -26 204
-5 151 39 303 199 378 399 62 163 82 400 46 535 -38 139 -142 282 -240 330
-87 42 -257 37 -326 -10 -17 -11 -44 -29 -61 -41 -17 -11 -31 -19 -32 -17 -1
1 -10 20 -21 40 -23 47 -17 63 31 78 83 26 240 126 305 193 59 62 110 136 124
184 19 63 19 170 0 236 -34 117 -149 230 -287 282 -41 15 -81 30 -89 35 -12 6
-16 43 -21 201 -6 202 -16 264 -65 409 -32 94 -104 238 -152 305 -92 127 -245
276 -367 357 -149 98 -391 191 -565 218 -41 6 -99 15 -129 21 -101 17 -393 9
-531 -16z m390 -31 c0 -8 5 -12 10 -9 6 3 10 1 10 -4 0 -17 26 -13 41 5 11 13
26 15 77 11 73 -6 83 -12 56 -31 -12 -10 -16 -18 -9 -24 14 -14 55 4 55 23 0
19 19 19 58 -1 18 -8 36 -13 41 -10 5 3 14 -1 21 -9 8 -10 17 -12 24 -6 24 19
188 -41 185 -67 -4 -22 2 -46 9 -36 13 19 50 34 69 27 33 -12 92 -55 107 -78
18 -27 10 -69 -11 -61 -19 8 -70 -19 -70 -36 0 -8 7 -14 16 -15 101 -5 118 -3
137 18 24 26 4 50 -21 25 -16 -15 -12 -21 10 -16 6 1 7 -2 2 -6 -4 -4 -17 -8
-28 -9 -17 -1 -20 3 -17 29 2 18 8 30 16 29 6 -2 12 2 12 7 0 21 27 8 75 -35
33 -29 44 -44 33 -45 -9 0 -20 5 -23 10 -3 6 -15 10 -26 10 -24 0 -26 -20 -1
-21 9 -1 20 -1 25 0 4 0 7 -6 7 -14 0 -8 5 -15 10 -15 6 0 10 5 10 10 0 6 5
10 11 10 5 0 7 -5 3 -11 -5 -8 1 -10 20 -7 21 4 35 -3 74 -41 57 -55 135 -147
151 -178 10 -19 9 -23 -4 -23 -8 0 -15 5 -15 12 0 16 -51 68 -67 68 -9 0 -8
-8 5 -34 14 -28 20 -32 31 -23 11 9 13 9 8 0 -5 -8 4 -18 22 -28 37 -19 51
-43 40 -70 -4 -11 -8 -33 -8 -48 -1 -20 -5 -26 -13 -21 -9 5 -9 2 1 -9 12 -15
11 -17 -4 -17 -9 0 -15 -6 -12 -12 4 -14 28 -18 26 -5 0 4 7 20 16 34 10 15
21 38 25 52 8 26 8 26 24 -11 19 -45 20 -61 4 -53 -7 4 -6 1 2 -7 8 -7 24 -31
35 -53 11 -22 23 -42 26 -45 12 -9 20 -50 11 -50 -12 0 0 -67 18 -100 7 -13
17 -40 21 -60 12 -50 23 -281 15 -321 -5 -29 -10 -34 -35 -34 -22 0 -27 3 -19
13 6 6 17 12 25 12 8 0 11 5 8 11 -5 7 -14 4 -27 -8 -19 -17 -20 -17 -33 0
-16 22 -25 22 -25 -3 0 -10 8 -24 18 -29 13 -8 14 -10 2 -11 -17 0 -70 62 -70
83 0 8 -9 22 -19 31 -11 10 -21 35 -23 56 -2 23 0 36 5 31 11 -11 38 -3 49 13
4 6 8 1 8 -11 0 -13 -6 -23 -12 -23 -9 0 -8 -4 2 -10 13 -8 12 -10 -5 -11 -19
-1 -19 -2 -1 -6 15 -4 16 -7 5 -14 -10 -6 -8 -9 9 -9 13 0 20 -4 17 -10 -3 -5
-1 -10 5 -10 6 0 10 8 9 18 -3 32 1 41 16 36 21 -8 19 9 -5 38 -14 19 -16 28
-8 36 9 9 9 12 0 12 -7 0 -12 8 -12 19 0 23 -47 74 -60 66 -6 -4 -9 -1 -8 5 2
7 -5 14 -15 15 -22 4 -36 15 -19 15 15 0 -2 32 -36 71 -21 24 -22 28 -7 43 9
9 11 16 5 16 -6 0 -8 5 -5 10 3 6 -2 10 -12 10 -11 0 -14 3 -7 8 14 9 10 35
-9 62 -12 17 -15 18 -20 5 -4 -8 -4 -23 -1 -32 5 -14 4 -15 -4 -4 -5 7 -15 10
-22 6 -8 -5 -7 -12 4 -24 9 -10 13 -21 9 -24 -3 -4 -1 -7 6 -7 13 0 41 -24 41
-35 0 -3 -4 -3 -10 0 -15 9 -12 -12 5 -28 8 -8 11 -17 8 -21 -4 -3 -2 -6 4 -6
6 0 16 -14 23 -30 7 -17 19 -34 28 -39 8 -4 15 -21 15 -37 0 -16 2 -23 4 -16
7 19 20 14 26 -9 4 -15 11 -20 23 -15 11 4 15 2 11 -8 -3 -8 -1 -17 6 -19 8
-3 6 -7 -6 -12 -20 -8 -47 10 -47 32 0 8 -4 12 -9 8 -6 -3 -22 16 -37 42 -14
27 -39 68 -53 93 -15 25 -34 56 -42 70 -8 14 -16 27 -19 30 -19 17 -100 123
-100 131 0 5 -6 9 -13 9 -7 0 -29 16 -48 36 -18 20 -47 41 -64 49 l-30 13 28
11 c15 6 27 16 27 23 0 9 -3 8 -10 -2 -6 -9 -10 -10 -10 -3 0 8 -9 9 -31 3
-25 -7 -38 -5 -58 9 -14 10 -34 21 -45 25 -17 6 -17 8 -3 24 15 16 15 19 -4
31 -12 7 -18 8 -15 2 4 -5 2 -12 -4 -16 -6 -4 -8 -11 -5 -16 9 -13 1 -11 -40
8 -20 10 -35 24 -35 34 0 21 22 38 28 21 2 -7 19 -12 38 -12 26 0 34 4 34 18
0 15 -2 15 -11 2 -8 -12 -10 -12 -7 -1 2 8 12 15 22 17 11 2 16 -2 12 -11 -7
-20 8 -27 27 -12 20 16 5 60 -18 51 -8 -3 -15 -1 -15 6 0 6 -5 8 -10 5 -6 -4
-8 -10 -5 -15 3 -4 -8 -6 -25 -4 -20 4 -30 1 -30 -7 0 -7 -3 -9 -7 -6 -3 4
-13 -2 -21 -14 -7 -11 -19 -18 -25 -16 -7 2 -20 0 -30 -5 -12 -6 -24 -4 -38 5
-17 13 -18 15 -4 21 9 3 14 2 11 -2 -3 -5 1 -9 8 -9 8 0 12 6 9 14 -7 17 -28
17 -45 0 -7 -7 -41 -14 -76 -15 -68 -2 -93 5 -71 19 11 7 11 9 1 9 -7 0 -15
-7 -18 -15 -8 -19 -44 -20 -44 -1 0 22 18 29 23 9 3 -12 5 -8 6 9 0 15 -4 30
-11 34 -7 5 -8 3 -3 -6 5 -8 4 -11 -2 -7 -21 13 -24 69 -6 90 10 11 12 17 6
13 -7 -4 -13 -3 -13 3 0 6 -8 7 -17 4 -16 -6 -16 -5 0 17 22 32 21 40 -3 40
-13 0 -20 7 -20 19 0 11 -6 26 -14 33 -7 8 -21 29 -30 47 -14 26 -15 35 -5 47
10 12 10 15 -1 12 -7 -2 -15 3 -18 11 -2 8 0 11 6 8 11 -8 9 49 -2 61 -4 4 -7
3 -5 -3 3 -15 -19 -65 -30 -65 -5 0 -32 25 -59 55 -54 58 -62 64 -62 40 0 -12
-4 -13 -25 -3 -14 6 -25 17 -25 25 0 7 -4 13 -10 13 -5 0 -10 -4 -10 -9 0 -4
-21 -8 -47 -8 -27 0 -58 -3 -70 -7 -18 -7 -23 -5 -23 8 0 9 -7 16 -16 16 -8 0
-13 4 -9 10 3 5 11 7 18 5 7 -2 28 0 47 4 19 5 65 9 103 10 54 1 67 -2 67 -15z
m-349 -18 c-9 -11 -6 -13 15 -13 16 0 21 2 14 7 -9 5 -9 9 -1 14 6 4 11 3 11
-2 0 -10 30 -9 47 1 7 5 9 0 6 -13 -3 -11 -10 -20 -15 -20 -5 0 -6 -5 -2 -12
5 -7 3 -8 -6 -3 -10 6 -12 4 -7 -8 3 -10 2 -17 -3 -17 -6 0 -37 -27 -71 -61
-44 -44 -64 -58 -72 -50 -8 8 -6 11 8 11 15 0 16 3 7 12 -10 10 -16 8 -30 -5
-14 -15 -15 -19 -3 -26 8 -5 11 -16 8 -26 -4 -9 -12 -13 -17 -10 -7 4 -9 -2
-4 -19 9 -38 -9 -32 -38 13 -22 33 -23 38 -7 34 10 -3 16 -9 13 -14 -3 -5 0
-9 5 -9 6 0 11 9 11 19 0 13 -13 24 -42 36 -24 9 -57 32 -74 51 -20 22 -37 32
-47 28 -9 -3 -24 -1 -34 5 -16 9 -15 10 7 11 14 0 43 9 65 20 22 11 52 20 67
20 15 0 30 5 33 10 3 6 11 10 17 10 6 0 3 -9 -7 -20 -20 -22 -14 -53 9 -44 8
3 16 15 18 27 2 16 16 26 58 39 68 21 75 21 61 4z m357 -97 c129 -71 199 -217
203 -417 1 -75 -3 -111 -19 -159 -38 -112 -103 -190 -182 -217 -85 -28 -140
-30 -220 -6 -63 19 -81 30 -129 78 -46 47 -60 70 -79 127 -34 107 -40 195 -21
295 31 167 125 289 247 320 54 13 156 3 200 -21z m-642 -45 c21 -15 44 -34 52
-43 94 -120 127 -316 80 -487 l-22 -82 -61 -7 c-66 -7 -104 -27 -151 -77 -66
-72 -75 -105 -53 -210 9 -44 20 -62 64 -105 35 -34 68 -56 97 -64 23 -7 49
-17 56 -22 9 -8 12 -60 12 -217 l-1 -208 -27 9 c-15 5 -67 18 -117 29 -49 11
-115 27 -145 35 -164 44 -364 100 -430 120 -42 13 -112 29 -158 35 -55 8 -82
17 -82 26 0 20 19 27 35 14 8 -7 22 -9 31 -6 27 10 322 36 415 36 92 0 126 14
63 26 -58 11 -341 -3 -419 -20 -38 -9 -116 -19 -172 -22 -85 -6 -103 -5 -108
8 -7 17 38 148 67 195 15 26 23 31 36 24 9 -5 73 -16 142 -25 69 -9 148 -21
175 -26 28 -5 105 -17 173 -26 116 -16 154 -14 123 6 -23 13 -223 47 -473 79
-76 9 -140 20 -144 24 -9 8 78 129 140 195 44 46 54 53 79 48 16 -3 119 -51
229 -105 111 -55 205 -98 210 -95 21 13 -36 49 -218 140 -139 68 -191 99 -187
109 6 17 189 135 209 135 3 0 3 -9 -1 -19 -9 -28 37 -121 81 -163 46 -44 110
-73 177 -82 42 -5 48 -4 45 11 -2 13 -17 20 -49 24 -89 13 -155 62 -200 149
-20 39 -23 60 -23 150 0 86 4 117 24 170 52 143 149 257 263 310 77 37 113 38
163 4z m-324 -73 c-65 -68 -75 -81 -96 -125 -14 -29 -21 -35 -29 -26 -9 9 -7
16 11 27 12 9 22 24 22 34 0 10 10 27 22 39 12 11 19 23 15 26 -6 7 79 72 95
73 4 1 -14 -21 -40 -48z m-125 -85 c-4 -9 -13 -13 -22 -10 -11 5 -18 0 -22
-15 -3 -11 -9 -19 -13 -16 -4 3 -10 -4 -13 -15 -3 -11 -1 -23 5 -26 5 -3 7
-13 3 -21 -4 -13 -3 -14 10 -3 13 11 14 10 9 -4 -4 -11 -1 -16 10 -16 19 0 20
-28 2 -52 -10 -14 -15 -15 -25 -5 -10 9 -12 1 -10 -37 2 -32 -1 -51 -9 -54 -7
-2 -12 -15 -12 -28 0 -13 -5 -24 -12 -24 -6 0 -8 -3 -5 -7 4 -3 2 -12 -4 -20
-8 -9 -8 -13 -1 -13 6 0 14 5 17 10 3 6 14 10 23 10 12 0 9 -7 -13 -25 -16
-13 -42 -24 -57 -25 -16 0 -28 -6 -28 -12 0 -11 -61 -58 -75 -58 -10 0 24 58
37 63 8 3 6 6 -5 6 -10 1 -28 -8 -39 -19 -23 -21 -33 -50 -17 -50 5 0 9 -5 9
-11 0 -6 -9 -9 -19 -6 -12 3 -22 -1 -25 -9 -8 -22 -36 -16 -45 9 -11 28 -4 47
15 40 22 -8 17 5 -7 18 -13 7 -19 7 -15 1 3 -6 1 -14 -5 -18 -8 -5 -10 1 -7
19 9 48 -8 50 -46 6 -20 -23 -38 -40 -41 -37 -8 8 99 163 146 213 20 22 53 57
73 78 20 22 37 33 41 27 9 -15 38 9 31 25 -5 13 65 76 123 112 38 23 47 23 38
-1z m-2 -94 c-3 -3 -11 0 -18 7 -9 10 -8 11 6 5 10 -3 15 -9 12 -12z m1496
-172 c101 -20 179 -47 179 -60 0 -5 -28 -23 -62 -40 -35 -18 -70 -37 -78 -43
-8 -7 -24 -17 -35 -23 -144 -77 -459 -263 -485 -286 -12 -11 -12 -13 3 -16 10
-2 50 16 90 39 39 24 109 63 155 88 46 25 100 56 120 68 20 13 48 27 61 33 29
13 179 101 233 137 26 18 43 23 60 18 85 -26 274 -187 348 -295 47 -70 91
-158 119 -238 31 -90 26 -140 -9 -97 -17 20 -104 45 -154 45 -52 -1 -142 -22
-183 -44 -38 -19 -200 -22 -409 -7 -256 19 -299 20 -314 11 -41 -25 14 -32
331 -42 178 -5 325 -10 326 -12 9 -9 -57 -40 -135 -63 -338 -99 -378 -110
-672 -183 -246 -61 -378 -90 -415 -90 -19 0 -20 6 -17 202 2 134 0 203 -7 208
-6 3 22 24 62 46 54 30 80 53 105 90 33 48 34 51 30 135 -3 75 -7 92 -31 125
-15 22 -44 51 -65 65 -34 23 -37 29 -37 75 1 55 15 60 30 8 14 -48 90 -148
135 -178 43 -28 139 -56 194 -56 21 0 69 7 108 16 65 15 76 21 133 79 66 66
92 116 115 228 17 83 27 86 171 57z m-1871 -196 c0 -31 -23 -28 -28 4 -2 15 2
22 12 22 11 0 16 -9 16 -26z m-96 -69 c-5 -13 -34 -30 -34 -19 0 3 5 14 11 25
11 22 31 17 23 -6z m75 -4 c17 -13 22 -24 17 -36 -6 -17 -8 -17 -27 3 -11 12
-24 22 -29 22 -6 0 -10 7 -10 15 0 20 20 19 49 -4z m-52 -47 c3 -8 1 -20 -6
-27 -8 -8 -11 -8 -11 0 0 6 -3 18 -6 27 -3 9 -1 16 5 16 7 0 14 -7 18 -16z
m43 -14 c0 -5 -7 -10 -16 -10 -8 0 -12 5 -9 10 3 6 10 10 16 10 5 0 9 -4 9
-10z m1024 -25 c32 -30 33 -55 4 -82 -36 -33 -61 -36 -91 -12 -51 40 -26 117
39 118 12 1 33 -10 48 -24z m-1120 -46 c-10 -16 38 -1 52 17 6 8 14 14 17 14
4 0 -12 -29 -35 -65 -39 -61 -58 -79 -58 -55 0 15 -17 12 -35 -7 -16 -16 -16
-17 -1 -29 10 -7 13 -15 8 -18 -19 -11 -31 19 -23 54 14 55 40 110 54 111 9 0
9 2 0 6 -7 2 -13 12 -13 20 0 11 7 7 21 -11 11 -14 17 -31 13 -37z m-93 -242
c-13 -13 -15 11 -4 40 7 16 8 15 11 -6 2 -13 -1 -28 -7 -34z m2718 -73 c69
-24 95 -40 134 -83 56 -62 77 -118 77 -203 0 -139 -81 -249 -218 -293 -127
-42 -296 34 -357 160 -27 57 -32 169 -10 236 48 144 231 233 374 183z m-2594
-161 c65 -21 145 -96 176 -166 34 -75 32 -174 -3 -243 -51 -97 -168 -174 -271
-177 -102 -2 -221 75 -275 178 -38 73 -38 179 1 252 44 86 102 136 183 160 74
21 110 20 189 -4z m2875 -52 c0 -5 16 -11 35 -13 26 -3 34 -1 31 9 -8 20 31
16 53 -6 14 -14 22 -16 30 -8 14 14 41 -11 44 -41 1 -13 8 -22 18 -22 19 0 42
24 32 33 -3 4 -1 7 5 7 7 0 17 -9 24 -20 7 -11 18 -20 25 -20 7 0 13 -7 13
-16 0 -11 5 -14 16 -10 27 10 91 -64 88 -102 -1 -21 2 -29 11 -26 11 5 25 -20
29 -51 1 -5 4 -15 8 -20 8 -13 9 -133 2 -158 -3 -9 -10 -15 -15 -12 -12 8 -42
-22 -34 -34 3 -6 12 -8 20 -4 22 8 19 -2 -18 -57 -30 -44 -78 -92 -92 -90 -20
1 -27 -1 -22 -6 9 -10 -32 -64 -49 -64 -8 0 -14 5 -14 10 0 6 5 10 10 10 6 0
10 5 10 10 0 7 -6 7 -17 1 -10 -5 -26 -12 -35 -15 -25 -8 -22 -26 4 -26 21 0
21 -1 3 -20 -14 -16 -20 -17 -27 -8 -6 11 -10 11 -16 0 -5 -7 -19 -11 -33 -10
-18 2 -25 -2 -27 -19 -2 -13 -9 -23 -16 -23 -7 0 -35 -12 -64 -26 -47 -23 -53
-24 -68 -10 -20 20 -34 20 -34 1 0 -8 -6 -15 -12 -15 -29 -1 -39 -16 -29 -43
7 -18 7 -28 -1 -33 -7 -5 -8 -2 -3 7 8 12 6 12 -8 0 -23 -18 -19 -21 37 -25
33 -2 46 1 46 11 0 7 -10 13 -22 14 -22 0 -22 1 -3 9 25 10 51 -12 71 -59 8
-18 14 -35 14 -38 0 -2 -22 -28 -50 -57 -27 -29 -51 -63 -54 -77 -2 -13 -10
-24 -18 -23 -8 1 -15 -8 -15 -19 -1 -11 -7 -32 -12 -46 -6 -14 -16 -39 -22
-56 l-11 -30 -9 24 c-14 37 -21 19 -22 -61 -2 -52 -6 -72 -14 -71 -7 2 -13 -4
-13 -12 0 -8 4 -15 9 -15 5 0 8 -8 6 -17 -2 -10 -4 -42 -4 -70 -1 -40 -5 -53
-16 -53 -9 0 -15 -9 -15 -22 1 -22 1 -23 15 -4 14 18 15 15 16 -40 1 -32 2
-68 1 -79 0 -11 6 -45 14 -75 16 -61 18 -83 6 -76 -4 2 -14 1 -22 -5 -13 -7
-12 -9 3 -9 9 0 17 -4 17 -9 0 -5 3 -17 6 -26 5 -13 2 -16 -17 -13 -15 2 -24
9 -23 20 2 22 -35 35 -47 17 -5 -8 -3 -16 3 -20 20 -13 -56 -21 -85 -10 -16 6
-33 9 -38 5 -5 -3 -9 2 -9 10 0 9 -7 16 -15 16 -18 0 -20 -17 -2 -23 20 -7 1
-19 -35 -22 -92 -8 -136 -23 -192 -65 -31 -24 -64 -56 -72 -72 -16 -32 -26
-35 -44 -13 -9 10 -17 12 -30 5 -28 -15 -18 -45 14 -45 31 1 32 -6 9 -43 -38
-60 -137 -152 -131 -120 2 7 7 16 11 19 4 3 1 12 -8 19 -13 11 -15 9 -15 -9 0
-15 -4 -20 -12 -15 -8 5 -8 1 1 -10 13 -15 13 -19 1 -26 -10 -6 -17 -4 -23 5
-14 25 -54 18 -61 -10 -9 -35 -57 -38 -89 -4 -10 10 -28 19 -40 19 -21 -1 -21
-1 -3 -15 11 -8 16 -18 12 -22 -8 -8 -13 -9 -41 -12 -8 0 -15 -5 -15 -10 0 -5
23 -9 50 -8 28 1 50 -1 50 -5 0 -4 -61 -7 -135 -6 -112 0 -142 4 -172 19 -21
11 -48 19 -61 19 -38 0 -73 23 -149 96 -28 27 -43 50 -43 66 0 14 -3 28 -7 32
-10 10 -15 37 -14 76 1 31 -14 76 -30 90 -3 3 -13 27 -22 53 -17 50 -14 77 8
77 18 0 29 -17 14 -22 -5 -2 -7 -11 -3 -22 6 -16 8 -16 16 -2 11 20 42 21 58
1 7 -8 19 -15 27 -15 13 0 13 -3 3 -15 -11 -13 -8 -15 24 -10 21 2 56 -2 79
-9 107 -33 195 -47 313 -47 53 -1 109 -5 125 -9 17 -5 29 -5 29 1 0 5 4 9 8 9
12 0 8 -38 -6 -52 -9 -9 -12 -9 -12 0 0 7 -3 11 -7 10 -5 -1 -28 2 -51 6 -29
5 -48 4 -55 -3 -8 -8 -6 -11 6 -11 9 0 17 -4 17 -10 0 -5 25 -10 55 -10 43 0
56 4 64 19 6 10 8 20 6 23 -5 4 33 2 45 -2 3 -1 8 -2 13 -1 4 0 7 -4 7 -10 0
-5 4 -7 10 -4 13 8 -18 41 -45 48 -11 3 24 4 77 4 54 -1 98 -5 98 -10 0 -4 5
-6 12 -5 7 2 13 -9 13 -26 0 -16 7 -32 14 -34 10 -3 12 3 9 22 -3 15 -1 29 4
32 5 3 7 13 3 22 -4 11 2 9 19 -7 l25 -23 27 21 c15 11 23 21 18 21 -5 0 -3 4
5 9 12 8 12 12 -2 25 -20 20 -34 21 -17 1 15 -18 8 -28 -20 -32 -13 -2 -20 3
-20 15 0 14 -2 15 -10 2 -11 -17 -13 -9 -4 15 7 17 54 45 76 45 10 0 10 -2 1
-8 -8 -5 -3 -11 17 -19 23 -8 30 -8 34 3 3 7 1 16 -4 19 -16 10 -11 22 9 28
25 6 44 -12 31 -28 -14 -17 -2 -44 18 -40 19 3 18 31 -2 55 -16 20 -15 52 3
58 8 2 11 0 8 -5 -10 -16 9 -34 27 -27 12 5 16 13 12 30 -4 16 1 31 20 51 51
53 112 143 129 188 20 50 39 52 24 2 -12 -43 -12 -47 7 -47 10 0 14 -6 10 -15
-3 -8 0 -15 6 -15 7 0 4 -6 -7 -13 -18 -14 -15 -18 17 -30 12 -4 15 -2 12 8
-3 7 3 16 15 20 23 7 29 45 9 45 -16 0 -48 55 -48 80 0 10 -6 21 -12 24 -10 5
-10 7 -1 12 7 3 10 11 7 19 -3 7 0 24 7 37 25 45 27 92 5 117 -11 12 -14 21
-8 21 6 0 12 -6 15 -12 2 -7 7 -10 11 -7 3 3 -2 33 -13 67 -13 43 -15 64 -8
71 8 8 8 11 0 11 -7 0 -15 -9 -18 -20 -4 -11 -10 -18 -15 -15 -12 7 -18 55 -8
61 5 3 0 13 -11 21 -12 8 -21 20 -21 27 0 7 -11 25 -26 41 -14 15 -24 34 -22
43 2 9 -5 25 -16 36 -10 10 -14 21 -10 25 11 7 11 32 1 49 -7 11 -57 18 -57 8
0 -13 13 -35 19 -32 4 3 8 -4 8 -15 2 -25 -5 -24 -34 3 -27 26 -29 44 -5 52 9
3 25 11 34 18 14 10 21 9 37 -6 19 -18 21 -18 21 -2 0 15 7 16 48 11 l47 -6
-24 19 c-15 12 -21 24 -16 32 6 10 10 10 19 -2 6 -8 25 -17 43 -21 26 -5 35
-2 47 15 14 20 13 23 -12 46 -15 13 -21 21 -13 17 9 -5 12 -3 10 4 -7 21 -24
17 -27 -6 -3 -17 -10 -23 -28 -23 -13 0 -24 2 -24 4 0 5 122 126 127 126 1 0
-2 -12 -8 -26 -9 -25 -8 -26 8 -13 23 18 33 31 28 39 -2 3 11 5 28 5 20 0 37
7 46 18 7 11 21 17 31 14 13 -3 16 0 13 14 -3 10 -12 24 -20 30 -11 10 -19 7
-39 -14 -14 -15 -30 -27 -37 -27 -6 0 2 14 19 31 22 22 37 29 51 25 22 -7 103
-82 103 -96 0 -6 11 -10 24 -10 17 0 29 9 40 31 14 28 14 30 0 25 -9 -3 -26 2
-38 12 -18 14 -20 20 -11 29 7 7 17 9 21 5 5 -4 2 1 -5 10 -7 10 -17 15 -22
12 -5 -3 -9 2 -9 10 0 10 6 13 18 10 16 -5 16 -5 0 6 -10 6 -18 17 -18 24 0
15 -47 19 -56 5 -3 -5 2 -9 11 -9 9 0 13 -4 10 -10 -3 -5 -12 -10 -20 -10 -20
0 -168 148 -160 160 3 5 -1 10 -9 10 -27 0 -18 16 26 46 67 46 108 91 144 162
9 17 24 32 33 32 14 0 14 2 1 10 -13 8 -13 10 1 10 9 0 22 -7 29 -14 8 -11 18
-12 35 -6 13 5 26 6 31 2 4 -4 4 -1 0 6 -5 8 0 12 13 12 12 0 30 9 40 19 11
11 22 16 26 13 3 -4 3 2 -1 12 -6 16 -8 17 -16 2 -11 -20 -32 -21 -48 -1 -9
11 -16 12 -26 4 -9 -7 -18 -7 -33 1 -17 9 -20 8 -15 -5 5 -11 2 -13 -9 -9 -9
3 -20 24 -25 47 -5 23 -13 50 -17 60 -5 12 -2 17 9 17 9 0 16 -4 16 -9z m108
-137 c-4 -3 -12 5 -18 18 -12 22 -12 22 6 6 10 -10 15 -20 12 -24z m-1466 3
c35 -35 102 -212 117 -307 32 -207 -10 -377 -123 -497 -73 -79 -152 -118 -273
-138 -206 -34 -376 -5 -491 82 -51 39 -118 135 -141 205 -41 120 -22 339 41
478 46 102 74 152 86 157 12 5 88 -10 200 -39 24 -6 46 -16 48 -22 2 -6 0 -83
-5 -171 -9 -167 -1 -230 29 -230 12 0 15 27 16 170 2 165 9 215 35 231 7 4 58
16 113 25 56 10 139 29 186 43 98 28 143 32 162 13z m1373 3 c3 -5 -1 -10 -9
-10 -9 0 -16 5 -16 10 0 6 4 10 9 10 6 0 13 -4 16 -10z m-1135 -100 c110 -30
254 -63 445 -101 55 -11 124 -31 154 -45 37 -18 76 -27 130 -30 104 -7 119
-11 132 -35 8 -17 8 -24 -3 -34 -22 -22 -137 -46 -243 -51 -89 -5 -140 -1
-252 22 -37 7 -45 -9 -14 -25 86 -46 408 -40 467 9 30 26 12 -4 -38 -62 -87
-99 -283 -241 -448 -324 -132 -66 -457 -164 -545 -164 -18 0 -56 -5 -84 -12
-37 -8 -55 -8 -62 -1 -8 8 7 20 50 43 99 53 150 116 195 240 50 140 52 337 6
480 -42 129 -41 120 -19 120 10 0 68 -13 129 -30z m-1139 -44 c-4 -12 -20 -61
-36 -111 -28 -82 -30 -102 -30 -230 0 -114 4 -149 19 -188 10 -26 17 -49 15
-52 -15 -14 -313 204 -350 257 l-23 31 24 -6 c45 -12 220 44 220 69 0 18 -8
18 -72 -5 -71 -26 -181 -49 -243 -52 -122 -5 -156 6 -95 31 17 7 61 42 98 77
65 61 114 92 177 107 17 4 44 13 60 21 41 17 176 63 200 67 38 7 43 5 36 -16z
m2059 -230 c0 -3 -4 -8 -10 -11 -5 -3 -10 -1 -10 4 0 6 5 11 10 11 6 0 10 -2
10 -4z m-2616 -115 c42 -23 76 -45 76 -50 0 -5 10 -12 23 -15 28 -8 93 -63 84
-72 -4 -4 -16 1 -27 11 -19 17 -20 17 -26 0 -5 -11 -1 -21 9 -27 10 -5 17 -15
17 -23 0 -8 9 -19 20 -25 20 -11 25 -5 21 28 -3 20 24 14 49 -13 20 -21 21
-27 9 -42 -13 -16 -12 -17 3 -5 23 18 77 1 121 -39 17 -16 38 -27 45 -24 14 5
52 -15 52 -27 0 -4 -7 -5 -16 -1 -14 5 -14 3 2 -15 13 -16 21 -19 31 -11 9 9
15 7 20 -7 4 -11 20 -30 35 -44 15 -13 28 -31 28 -38 0 -16 19 -36 40 -41 31
-7 45 -9 61 -10 9 -1 26 -10 39 -21 13 -11 27 -20 32 -20 5 0 6 -5 2 -12 -5
-7 -2 -9 8 -6 28 11 42 -9 39 -54 -3 -48 -20 -89 -21 -50 0 12 -5 22 -10 22
-24 0 -38 25 -28 49 5 15 5 28 -1 34 -13 13 -31 0 -31 -24 0 -28 -14 -23 -26
10 -10 25 -9 28 7 24 11 -3 19 0 19 6 0 6 -5 11 -12 11 -6 0 -19 7 -28 15 -15
13 -19 13 -39 -9 l-22 -23 23 -49 c13 -27 27 -52 33 -56 5 -4 6 -10 2 -14 -4
-4 -20 5 -35 19 -30 29 -72 43 -72 25 0 -5 7 -8 15 -4 8 3 15 1 15 -4 0 -15
-68 -12 -94 5 -12 8 -34 16 -49 17 -15 1 -27 6 -27 11 0 4 -4 5 -10 2 -5 -3
-34 1 -65 10 -42 13 -55 21 -55 36 0 12 -7 19 -20 19 -22 0 -97 37 -107 53 -3
6 -1 7 5 3 7 -4 12 -2 12 3 0 14 -6 14 -30 -1 -24 -15 -62 3 -81 38 -7 13 -18
24 -26 24 -7 0 -13 5 -13 10 0 6 -6 10 -14 10 -7 0 -33 22 -57 49 -78 87 -99
122 -92 150 4 15 -2 27 -19 40 -29 23 -73 103 -83 150 -7 32 -7 33 12 14 10
-10 25 -38 32 -61 14 -43 35 -63 57 -55 21 7 3 51 -26 63 -19 8 -27 17 -23 27
4 9 -2 16 -16 20 -17 4 -19 8 -10 20 9 10 29 13 75 10 49 -3 78 -13 138 -46z
m2814 24 c-12 -26 -30 -35 -25 -13 2 11 26 36 34 38 2 0 -3 -11 -9 -25z
m-2624 -82 c72 -69 74 -81 5 -31 -61 43 -89 71 -89 86 0 21 13 12 84 -55z
m156 -119 c0 -9 -37 15 -51 33 -10 12 -5 11 19 -6 17 -12 32 -24 32 -27z m40
-26 c0 -6 -6 -5 -15 2 -8 7 -15 14 -15 16 0 2 7 1 15 -2 8 -4 15 -11 15 -16z
m107 -64 c-3 -3 -12 -4 -19 -1 -8 3 -5 6 6 6 11 1 17 -2 13 -5z m2704 -48
c189 -58 292 -203 319 -451 17 -164 -44 -399 -140 -544 -94 -140 -152 -188
-279 -232 -58 -19 -71 -21 -124 -11 -168 31 -264 142 -307 356 -30 146 -26
228 21 436 12 51 63 169 95 217 67 101 167 187 244 211 19 6 49 16 65 21 42
13 53 13 106 -3z m-928 -88 c142 -99 207 -224 207 -400 0 -276 -190 -462 -555
-543 -111 -25 -381 -26 -480 -1 -198 48 -337 111 -416 188 -47 46 -124 155
-162 230 -31 60 -32 68 -32 185 0 115 1 123 24 147 26 27 53 32 95 16 14 -5
64 -16 112 -24 99 -18 115 -27 92 -53 -9 -10 -23 -33 -32 -51 -16 -30 -16 -38
-2 -80 8 -26 18 -62 21 -81 l7 -34 -33 7 c-19 3 -65 9 -103 13 l-69 6 5 -41
c8 -54 83 -159 162 -225 73 -61 220 -132 313 -153 99 -21 315 -29 399 -15 110
20 136 28 239 77 66 32 210 166 240 223 53 103 73 235 38 248 -9 4 -82 -10
-162 -30 -154 -38 -271 -60 -411 -77 -47 -6 -100 -13 -119 -15 -32 -4 -33 -3
-26 23 4 15 10 66 12 114 4 84 4 87 -21 103 -14 10 -26 22 -26 29 0 6 47 22
108 35 144 32 283 81 411 146 58 30 112 54 119 54 7 1 27 -9 45 -21z m-783
-183 c11 -10 18 -21 16 -24 -3 -4 -40 -6 -83 -6 -70 1 -139 -12 -207 -40 -18
-8 -18 -7 -1 18 9 14 40 38 68 52 45 23 61 26 120 22 46 -3 74 -10 87 -22z
m-754 -44 c-3 -4 6 -19 19 -31 23 -22 34 -60 18 -60 -9 0 -49 56 -59 83 -4 12
-1 17 11 17 9 0 14 -4 11 -9z m852 -40 c40 -21 23 -27 -71 -23 -86 4 -147 -2
-271 -28 -27 -5 -55 -15 -62 -21 -7 -6 -21 -9 -31 -7 -35 7 34 52 115 75 63
19 97 22 187 20 62 -2 120 -9 133 -16z m947 -28 c3 -13 2 -23 -3 -23 -5 0 -12
14 -14 30 -5 33 6 28 17 -7z m-974 -38 l45 -16 -6 -47 c-6 -45 -24 -88 -52
-123 -24 -30 -91 -69 -118 -69 -31 0 -42 11 -58 58 -10 29 -8 35 18 66 34 39
37 52 13 78 -34 38 -123 12 -123 -37 0 -13 10 -36 23 -52 25 -30 54 -109 44
-119 -8 -9 -96 44 -125 75 -32 34 -55 88 -48 115 15 60 278 108 387 71z m769
-87 c0 -36 -41 -144 -75 -198 -26 -41 -132 -142 -172 -164 -185 -102 -392
-131 -603 -86 -214 46 -342 125 -461 287 -38 51 -43 81 -12 69 8 -3 45 -9 81
-12 71 -7 85 -12 151 -58 78 -55 214 -54 291 2 69 49 100 60 201 72 189 23
457 74 544 105 55 19 55 19 55 -17z m-252 -546 c2 -8 -3 -10 -14 -5 -12 4 -15
3 -10 -5 8 -14 1 -15 -45 -5 l-33 6 39 13 c45 13 57 13 63 -4z m-218 -362 c0
-5 -7 -10 -15 -10 -8 0 -15 5 -15 10 0 6 7 10 15 10 8 0 15 -4 15 -10z"/>
<path d="M2699 4361 c11 -7 11 -9 0 -14 -8 -3 -3 -6 10 -6 20 -1 21 1 11 14
-7 8 -18 15 -24 15 -6 0 -5 -4 3 -9z"/>
<path d="M2422 4348 c5 -14 43 -18 60 -5 9 6 8 7 -4 3 -10 -3 -20 -1 -23 4 -9
14 -37 12 -33 -2z"/>
<path d="M2851 4316 c-9 -10 -8 -15 3 -19 8 -3 17 1 20 8 7 20 -9 28 -23 11z"/>
<path d="M2876 4281 c-7 -11 18 -33 27 -24 4 3 7 12 7 20 0 15 -26 18 -34 4z"/>
<path d="M2684 4254 c-18 -15 -18 -15 6 -10 23 5 23 4 7 -8 -17 -13 -16 -14 7
-12 21 1 23 4 14 21 -6 11 -12 21 -13 22 -1 2 -10 -4 -21 -13z"/>
<path d="M2954 4255 c-18 -14 -17 -14 13 -15 35 0 52 14 27 24 -20 8 -17 8
-40 -9z"/>
<path d="M2600 4186 c0 -4 7 -14 15 -22 8 -9 15 -11 15 -6 0 5 -7 15 -15 22
-8 7 -15 9 -15 6z"/>
<path d="M2640 4143 c0 -13 5 -23 10 -23 13 0 13 11 0 30 -8 12 -10 11 -10 -7z"/>
<path d="M2683 4088 c4 -10 2 -18 -4 -18 -5 0 -9 -6 -8 -12 1 -7 1 -20 0 -28
-1 -13 -2 -13 -11 0 -8 13 -10 13 -10 -2 0 -29 17 -29 40 -1 12 16 18 22 14
14 -6 -11 -3 -13 12 -6 10 4 32 7 47 6 17 -1 26 3 22 9 -3 6 -11 8 -16 4 -5
-3 -17 0 -26 8 -12 9 -15 9 -9 1 14 -24 -13 -13 -35 15 -12 15 -19 19 -16 10z"/>
<path d="M2796 4088 c5 -8 2 -9 -9 -5 -10 3 -17 2 -17 -4 0 -6 -6 -7 -12 -3
-7 4 -10 3 -5 -1 10 -12 47 -14 47 -3 0 5 6 6 13 2 8 -5 8 -2 -2 9 -15 19 -26
23 -15 5z"/>
<path d="M2844 4084 c19 -19 21 -31 3 -15 -10 8 -14 7 -14 -3 0 -13 32 -14 44
-3 6 6 -26 37 -38 37 -6 0 -3 -7 5 -16z"/>
<path d="M3181 4061 c-10 -6 -10 -10 -1 -16 8 -5 6 -13 -7 -28 -10 -11 -12
-17 -5 -13 7 4 12 1 12 -8 0 -9 7 -17 15 -17 8 -1 21 -2 28 -3 6 -1 11 5 10
12 -2 6 2 12 7 12 15 0 12 -11 -7 -33 -17 -19 -17 -20 3 -9 26 14 37 67 17 83
-7 6 -13 8 -13 3 0 -5 -5 -1 -11 9 -11 19 -27 21 -48 8z"/>
<path d="M3312 3968 c-18 -18 -14 -53 6 -71 10 -10 21 -17 24 -17 11 0 16 40
6 47 -7 4 -8 1 -3 -7 5 -9 4 -11 -4 -6 -9 6 -9 11 0 22 9 11 9 14 0 14 -7 0
-10 4 -6 9 9 15 -10 22 -23 9z m28 -68 c0 -5 -2 -10 -4 -10 -3 0 -8 5 -11 10
-3 6 -1 10 4 10 6 0 11 -4 11 -10z"/>
<path d="M3135 3870 c3 -5 13 -6 23 -3 25 9 12 -2 -32 -26 -21 -12 -45 -20
-53 -17 -8 3 -12 2 -8 -3 3 -5 0 -11 -6 -13 -7 -2 -6 -8 4 -16 12 -10 18 -10
30 3 9 8 21 15 27 15 6 0 9 4 6 9 -7 11 57 9 65 -2 3 -4 13 -5 23 -1 14 5 14
9 4 22 -9 11 -9 13 -1 9 6 -4 15 -2 19 4 4 8 3 9 -4 5 -7 -4 -12 -2 -12 4 0 7
-6 8 -19 1 -14 -8 -20 -7 -25 4 -3 8 -15 15 -26 15 -12 0 -19 -4 -15 -10z"/>
<path d="M3370 3855 c-16 -19 5 -41 40 -40 35 1 37 6 15 33 -23 26 -38 28 -55
7z"/>
<path d="M3165 3800 c3 -5 8 -10 11 -10 2 0 4 5 4 10 0 6 -5 10 -11 10 -5 0
-7 -4 -4 -10z"/>
<path d="M3267 3779 c7 -7 15 -10 18 -7 3 3 -2 9 -12 12 -14 6 -15 5 -6 -5z"/>
<path d="M3480 3755 c0 -8 4 -15 10 -15 5 0 7 7 4 15 -4 8 -8 15 -10 15 -2 0
-4 -7 -4 -15z"/>
<path d="M3205 3724 c7 -8 18 -14 24 -14 6 0 11 -4 11 -10 0 -5 5 -10 12 -10
6 0 19 -7 28 -15 15 -13 17 -13 17 0 0 8 -6 15 -14 15 -7 0 -13 4 -13 9 0 5
-9 11 -21 14 -12 3 -19 9 -16 14 3 4 -6 9 -19 9 -20 2 -21 0 -9 -12z"/>
<path d="M3316 3662 c-3 -5 1 -9 9 -9 8 0 12 4 9 9 -3 4 -7 8 -9 8 -2 0 -6 -4
-9 -8z"/>
<path d="M3335 3620 c3 -5 -1 -10 -10 -10 -9 0 -14 -4 -10 -10 8 -13 35 -1 35
16 0 8 -5 14 -11 14 -5 0 -7 -4 -4 -10z"/>
<path d="M3462 3606 c-3 -5 0 -6 6 -2 6 3 13 2 17 -4 3 -5 18 -11 33 -11 21
-1 22 -2 7 -6 -28 -7 -44 -24 -17 -18 32 6 41 13 38 32 -2 13 -13 17 -40 18
-21 0 -40 -4 -44 -9z"/>
<path d="M3632 3540 c0 -14 2 -19 5 -12 2 6 2 18 0 25 -3 6 -5 1 -5 -13z"/>
<path d="M3507 3523 c-12 -12 -7 -19 12 -19 15 0 17 3 9 13 -12 15 -13 15 -21
6z"/>
<path d="M3605 3480 c-3 -5 -1 -10 4 -10 6 0 11 5 11 10 0 6 -2 10 -4 10 -3 0
-8 -4 -11 -10z"/>
<path d="M3592 3453 c11 -3 15 -10 11 -21 -5 -13 -3 -14 7 -5 15 14 5 33 -18
32 -16 -1 -16 -2 0 -6z"/>
<path d="M2046 4384 c-4 -10 -1 -14 6 -12 15 5 23 28 10 28 -5 0 -13 -7 -16
-16z"/>
<path d="M2022 4349 c2 -6 8 -10 13 -10 5 0 11 4 13 10 2 6 -4 11 -13 11 -9 0
-15 -5 -13 -11z"/>
<path d="M1757 4344 c-8 -9 1 -24 14 -24 6 0 8 4 4 9 -3 5 3 12 12 14 15 4 14
5 -3 6 -11 0 -24 -2 -27 -5z"/>
<path d="M1781 4310 c-10 -5 -8 -9 4 -14 23 -8 35 -8 35 3 0 13 -25 20 -39 11z"/>
<path d="M2023 3895 c-35 -24 -58 -83 -57 -141 3 -107 54 -181 133 -191 83
-11 131 41 131 142 0 83 -15 130 -56 170 -30 30 -41 35 -82 35 -27 0 -57 -7
-69 -15z m86 -18 c35 -15 81 -71 81 -100 0 -10 5 -27 11 -38 8 -15 6 -33 -6
-70 -32 -96 -119 -103 -170 -14 -26 44 -33 112 -16 157 7 19 57 78 66 78 2 0
17 -6 34 -13z"/>
<path d="M2063 3714 c-9 -23 11 -38 26 -20 13 16 7 36 -10 36 -5 0 -12 -7 -16
-16z"/>
<path d="M1645 4211 c-53 -22 -84 -93 -85 -194 0 -116 43 -177 125 -177 37 0
47 5 79 40 19 22 38 50 40 62 23 111 8 180 -51 240 -38 39 -65 46 -108 29z
m83 -52 c17 -18 39 -56 48 -85 15 -49 15 -56 0 -100 -17 -51 -60 -104 -84
-104 -36 0 -81 41 -97 90 -14 43 -15 54 -1 105 14 54 31 83 65 113 22 19 36
15 69 -19z"/>
<path d="M1680 4035 c0 -11 7 -15 23 -13 12 2 22 8 22 13 0 6 -10 11 -22 13
-16 2 -23 -2 -23 -13z"/>
<path d="M1036 3915 c-4 -11 1 -15 19 -15 16 0 25 6 25 15 0 8 -9 15 -19 15
-10 0 -21 -7 -25 -15z"/>
<path d="M1087 3844 c-23 -46 -7 -70 30 -46 17 11 25 65 10 74 -18 12 -21 10
-40 -28z"/>
<path d="M1024 3773 c4 -7 2 -13 -3 -13 -6 0 -11 -4 -11 -8 0 -5 6 -9 14 -9
15 0 16 21 1 34 -4 4 -5 2 -1 -4z"/>
<path d="M3030 3445 c-118 -30 -244 -61 -280 -69 -193 -43 -385 -96 -399 -112
-15 -15 -13 -16 37 -11 29 3 76 13 105 22 28 8 138 36 242 60 105 25 215 52
245 60 30 8 104 27 165 42 82 21 111 33 113 46 2 9 0 17 -5 16 -4 0 -105 -25
-223 -54z"/>
<path d="M775 3419 c-11 -17 1 -21 15 -4 8 9 8 15 2 15 -6 0 -14 -5 -17 -11z"/>
<path d="M720 3386 c0 -8 8 -14 18 -13 10 0 19 7 19 14 0 7 -9 13 -19 13 -10
0 -18 -6 -18 -14z"/>
<path d="M3917 2827 c-3 -8 3 -14 16 -15 12 0 17 2 12 6 -6 4 -13 11 -16 15
-4 4 -9 2 -12 -6z"/>
<path d="M3993 2775 c-17 -14 -17 -14 4 -15 13 0 24 -8 28 -20 3 -11 13 -20
22 -20 9 0 13 -6 9 -15 -3 -8 -1 -15 4 -15 21 0 4 46 -30 80 -16 16 -21 17
-37 5z"/>
<path d="M3995 2720 c3 -6 0 -10 -7 -10 -8 0 -7 -6 5 -17 14 -14 19 -15 29 -4
11 10 9 11 -7 5 -17 -7 -18 -6 -7 8 10 13 10 17 -3 22 -9 3 -13 2 -10 -4z"/>
<path d="M3655 2682 c-12 -12 -4 -31 13 -29 21 1 27 34 6 34 -8 0 -16 -3 -19
-5z"/>
<path d="M4061 2664 c0 -11 3 -14 6 -6 3 7 2 16 -1 19 -3 4 -6 -2 -5 -13z"/>
<path d="M4025 2630 c-3 -5 -1 -10 4 -10 6 0 11 5 11 10 0 6 -2 10 -4 10 -3 0
-8 -4 -11 -10z"/>
<path d="M4105 2630 c3 -5 8 -10 11 -10 2 0 4 5 4 10 0 6 -5 10 -11 10 -5 0
-7 -4 -4 -10z"/>
<path d="M3602 2613 c2 -10 12 -19 23 -20 11 -2 14 0 8 3 -7 3 -13 12 -13 20
0 8 -5 14 -11 14 -6 0 -9 -8 -7 -17z"/>
<path d="M3990 2606 c0 -2 7 -6 15 -10 8 -3 15 -1 15 4 0 6 -7 10 -15 10 -8 0
-15 -2 -15 -4z"/>
<path d="M4034 2591 c0 -12 6 -17 18 -13 14 3 16 7 7 18 -16 19 -25 17 -25 -5z"/>
<path d="M3985 2580 c3 -5 8 -10 11 -10 2 0 4 5 4 10 0 6 -5 10 -11 10 -5 0
-7 -4 -4 -10z"/>
<path d="M3555 2569 c-4 -6 0 -18 9 -28 9 -10 13 -20 10 -24 -3 -3 3 -10 14
-16 14 -8 18 -17 14 -37 -3 -19 -1 -25 7 -20 6 4 9 11 7 15 -3 4 9 16 25 26
16 11 29 25 29 31 0 18 -26 35 -44 28 -9 -4 -16 -3 -15 2 4 22 -3 30 -26 32
-13 1 -27 -3 -30 -9z m40 -10 c11 -17 -1 -21 -15 -4 -8 9 -8 15 -2 15 6 0 14
-5 17 -11z"/>
<path d="M4102 2550 c0 -14 2 -19 5 -12 2 6 2 18 0 25 -3 6 -5 1 -5 -13z"/>
<path d="M3492 2538 c-17 -17 -15 -24 7 -24 14 0 17 4 11 12 -6 6 -7 14 -3 17
3 4 4 7 2 7 -3 0 -10 -5 -17 -12z"/>
<path d="M3735 2510 c3 -5 -1 -10 -9 -10 -10 0 -13 -6 -10 -15 4 -8 10 -15 16
-15 5 0 6 6 2 13 -4 6 -3 8 1 4 14 -12 15 -37 2 -34 -14 2 -10 -43 4 -58 7 -7
8 -4 4 8 -4 10 -2 17 4 17 6 0 11 7 11 15 0 8 4 15 8 15 5 0 9 7 9 15 0 8 -4
12 -9 9 -4 -3 -12 6 -18 20 -5 14 -12 26 -15 26 -4 0 -3 -4 0 -10z"/>
<path d="M3985 2480 c-16 -7 -17 -9 -3 -9 9 -1 20 4 23 9 7 11 7 11 -20 0z"/>
<path d="M4091 2476 c-10 -12 -8 -13 8 -9 12 3 18 9 15 14 -7 12 -10 11 -23
-5z"/>
<path d="M4009 2427 c-32 -20 -42 -47 -18 -47 6 0 8 4 5 9 -3 4 6 6 19 3 26
-4 40 13 33 42 -2 12 -9 11 -39 -7z"/>
<path d="M3530 2430 c0 -6 7 -10 15 -10 8 0 15 2 15 4 0 2 -7 6 -15 10 -8 3
-15 1 -15 -4z"/>
<path d="M4064 2392 c-6 -4 -13 -19 -16 -34 -4 -23 -3 -26 12 -18 21 11 34 40
23 51 -5 5 -13 5 -19 1z"/>
<path d="M3947 2298 c-3 -10 1 -19 10 -22 9 -4 16 -5 17 -4 1 2 8 11 15 21 12
14 11 17 -3 17 -9 0 -16 -8 -17 -17 0 -16 -1 -16 -8 1 -6 17 -8 17 -14 4z"/>
<path d="M3860 2280 c13 -23 20 -26 20 -6 0 8 -7 16 -15 20 -13 4 -14 2 -5
-14z"/>
<path d="M3595 2170 c4 -6 11 -8 16 -5 14 9 11 15 -7 15 -8 0 -12 -5 -9 -10z"/>
<path d="M3511 2134 c6 -7 16 -11 21 -8 11 7 3 17 -18 20 -12 2 -13 -1 -3 -12z"/>
<path d="M3422 2008 c-16 -16 -15 -48 2 -48 18 0 28 27 18 46 -6 11 -11 11
-20 2z"/>
<path d="M3627 1886 c-15 -14 -27 -30 -27 -36 0 -5 -11 -10 -25 -10 -20 0 -25
-5 -25 -24 0 -14 -6 -31 -13 -38 -14 -14 -12 -38 4 -38 5 0 8 3 7 8 -4 11 26
52 38 52 11 0 39 49 35 63 -1 5 8 6 19 2 14 -4 22 -1 26 10 12 30 -11 37 -39
11z"/>
<path d="M3358 1893 c-19 -5 -25 -23 -7 -23 5 0 7 -4 4 -10 -3 -5 0 -7 7 -5 8
3 14 14 15 25 1 11 1 19 0 19 -1 -1 -10 -3 -19 -6z"/>
<path d="M3501 1854 c0 -11 3 -14 6 -6 3 7 2 16 -1 19 -3 4 -6 -2 -5 -13z"/>
<path d="M3280 1853 c0 -17 30 -44 41 -38 5 4 9 11 9 16 0 6 -5 7 -12 3 -6 -4
-17 1 -25 11 -7 11 -13 14 -13 8z"/>
<path d="M3495 1820 c-3 -5 -2 -10 4 -10 5 0 13 5 16 10 3 6 2 10 -4 10 -5 0
-13 -4 -16 -10z"/>
<path d="M3370 1813 c-19 -5 -43 -41 -35 -54 9 -13 25 -1 19 15 -8 21 43 13
62 -9 8 -11 12 -13 8 -5 -7 13 -5 13 8 2 22 -17 48 -5 44 21 -3 20 -26 38 -26
20 0 -5 -9 -9 -20 -10 -11 -1 -20 2 -20 7 0 10 -21 17 -40 13z"/>
<path d="M3393 1705 c0 -8 4 -12 9 -9 5 3 6 10 3 15 -9 13 -12 11 -12 -6z"/>
<path d="M3506 1684 c-10 -25 -7 -34 9 -34 9 0 15 9 15 25 0 28 -15 34 -24 9z"/>
<path d="M3390 1353 c0 -7 7 -13 15 -13 8 0 15 6 15 13 0 8 -7 14 -15 14 -8 0
-15 -6 -15 -14z"/>
<path d="M3410 1143 l-25 -25 28 17 c15 10 27 21 27 26 0 12 -2 11 -30 -18z"/>
<path d="M3282 1145 c-11 -13 -10 -15 6 -15 10 0 19 7 19 15 0 19 -8 19 -25 0z"/>
<path d="M3332 1125 c-1 -17 2 -23 12 -19 15 6 15 36 0 41 -5 2 -11 -8 -12
-22z"/>
<path d="M3208 1009 c-23 -24 -23 -29 2 -29 20 0 44 32 33 44 -9 9 -16 6 -35
-15z"/>
<path d="M3321 987 c-17 -17 -13 -27 12 -27 23 0 70 28 52 31 -38 6 -55 5 -64
-4z"/>
<path d="M2018 903 c6 -2 9 -10 6 -15 -4 -7 -2 -8 4 -4 18 11 14 26 -5 25 -11
0 -13 -3 -5 -6z"/>
<path d="M2160 897 c0 -20 47 -37 60 -22 7 9 7 15 -2 22 -19 14 -58 14 -58 0z"/>
<path d="M2813 836 c-10 -11 -9 -15 3 -20 23 -9 34 -7 34 5 0 5 -4 7 -10 4 -6
-3 -7 1 -4 9 7 20 -7 20 -23 2z"/>
<path d="M2412 823 c8 -11 7 -12 -8 -7 -15 6 -17 4 -7 -6 7 -8 19 -10 30 -5
10 5 21 8 25 7 4 -1 5 4 2 11 -2 7 -16 13 -29 13 -19 0 -22 -3 -13 -13z"/>
<path d="M2214 815 c-4 -8 -12 -15 -19 -15 -7 0 -16 -7 -19 -16 -9 -23 -7 -36
4 -29 6 3 10 -2 10 -11 0 -15 2 -16 18 -2 9 9 29 15 43 14 19 -1 26 3 24 14
-2 8 -4 16 -5 18 -2 1 -3 7 -4 12 -1 11 -25 30 -39 30 -4 0 -10 -7 -13 -15z"/>
<path d="M2064 814 c-14 -6 -9 -65 7 -75 19 -12 30 13 23 50 -6 31 -9 33 -30
25z"/>
<path d="M2501 811 c-11 -7 -9 -12 10 -22 21 -11 23 -11 11 4 -11 13 -10 16 5
20 12 3 13 5 3 6 -8 0 -21 -3 -29 -8z"/>
<path d="M2372 780 c3 -23 48 -41 48 -19 0 5 4 7 10 4 6 -3 7 1 4 10 -4 9 -14
15 -23 13 -9 -1 -22 1 -29 6 -10 6 -13 2 -10 -14z"/>
<path d="M2644 778 c-4 -7 -4 -10 1 -6 4 4 18 -4 30 -18 22 -26 23 -26 30 -5
3 11 3 25 0 31 -9 14 -52 12 -61 -2z"/>
<path d="M2215 739 c-4 -6 -5 -12 -2 -15 2 -3 7 2 10 11 7 17 1 20 -8 4z"/>
<path d="M2157 724 c-13 -14 -7 -26 7 -15 10 8 16 9 19 1 3 -6 4 -5 3 2 -3 14
-20 21 -29 12z"/>
<path d="M2826 704 c-3 -8 -2 -13 3 -10 5 3 12 -2 15 -11 6 -14 9 -15 16 -4 5
9 3 19 -5 28 -17 17 -22 16 -29 -3z"/>
<path d="M2200 701 c-8 -6 -18 -7 -22 -5 -4 3 -8 1 -8 -5 0 -6 -6 -8 -13 -5
-8 3 -14 -2 -14 -10 0 -11 6 -12 25 -5 13 5 28 7 33 3 5 -3 9 0 9 6 0 6 10 15
23 20 20 8 20 9 2 9 -11 0 -27 -3 -35 -8z"/>
<path d="M2090 640 c0 -22 7 -25 29 -11 16 10 6 31 -15 31 -8 0 -14 -9 -14
-20z"/>
<path d="M2168 653 c7 -3 16 -2 19 1 4 3 -2 6 -13 5 -11 0 -14 -3 -6 -6z"/>
<path d="M2244 603 c-4 -10 -6 -24 -5 -32 1 -7 -2 -10 -8 -6 -6 3 -11 1 -11
-4 0 -6 9 -11 21 -11 14 0 19 5 16 14 -4 9 0 12 13 9 15 -4 18 -1 13 18 -4 13
-8 18 -11 11 -2 -6 -8 -12 -13 -12 -4 0 -6 7 -3 15 8 21 -2 19 -12 -2z"/>
<path d="M760 2317 c0 -12 41 -48 59 -52 28 -5 26 3 -6 31 -24 21 -53 32 -53
21z"/>
<path d="M840 2238 c0 -18 11 -31 37 -45 17 -10 22 -9 27 3 9 25 -12 54 -39
54 -14 0 -25 -6 -25 -12z"/>
<path d="M928 2209 c-26 -14 -22 -29 7 -29 14 0 25 5 25 10 0 6 -5 10 -11 10
-5 0 -7 5 -4 10 8 12 5 12 -17 -1z"/>
<path d="M751 2184 c0 -11 3 -14 6 -6 3 7 2 16 -1 19 -3 4 -6 -2 -5 -13z"/>
<path d="M823 2089 c-2 -23 3 -25 10 -4 4 8 3 16 -1 19 -4 3 -9 -4 -9 -15z"/>
<path d="M1070 2039 c0 -5 5 -7 10 -4 6 3 10 8 10 11 0 2 -4 4 -10 4 -5 0 -10
-5 -10 -11z"/>
<path d="M802 2016 c4 -24 48 -43 48 -21 0 13 -6 17 -26 14 -4 0 -11 5 -16 13
-7 10 -8 8 -6 -6z"/>
<path d="M1146 2022 c-3 -5 5 -18 19 -30 27 -24 40 -8 16 20 -17 20 -27 22
-35 10z"/>
<path d="M991 1971 c-12 -7 -12 -13 -3 -24 7 -7 8 -18 4 -22 -4 -5 -1 -5 6 -1
6 4 12 2 12 -4 0 -7 5 -6 14 2 15 14 11 32 -6 22 -6 -4 -8 1 -3 15 7 22 -1 26
-24 12z"/>
<path d="M1086 1973 c-12 -12 -6 -31 9 -29 8 1 16 4 19 7 6 6 -21 29 -28 22z"/>
<path d="M1196 1907 c3 -10 9 -15 12 -12 3 3 0 11 -7 18 -10 9 -11 8 -5 -6z"/>
<path d="M1317 1883 c-17 -16 -6 -43 20 -49 24 -7 25 -8 8 -14 -11 -4 -32 -4
-47 1 -31 8 -49 -16 -19 -26 10 -3 18 -12 19 -20 1 -8 3 -21 4 -29 1 -11 8 -9
29 6 15 12 25 27 22 34 -6 17 13 19 23 2 5 -7 3 -8 -6 -3 -9 5 -11 4 -6 -4 4
-6 12 -9 17 -5 5 3 6 10 3 16 -5 8 -1 9 10 5 10 -4 15 -3 11 3 -3 6 4 10 17
10 21 1 21 2 5 11 -9 6 -15 14 -12 20 4 5 -5 9 -20 9 -14 0 -33 9 -42 20 -19
21 -26 24 -36 13z"/>
<path d="M976 1863 c5 -5 12 -12 16 -18 4 -6 8 -2 8 8 0 9 -7 17 -17 17 -9 0
-12 -3 -7 -7z"/>
</g>
</svg>
